<?xml version="1.0" encoding="UTF-8" standalone="no"?><!-- Generator: Gravit.io --><svg xmlns="http://www.w3.org/2000/svg" xmlns:xlink="http://www.w3.org/1999/xlink" style="isolation:isolate" viewBox="0 0 73.274 65.636" width="73.274pt" height="65.636pt"><defs><clipPath id="_clipPath_1P2p9CjWQA3l9ZyMA4Tp2LMdMKE5VXLc"><rect width="73.274" height="65.636"/></clipPath></defs><g clip-path="url(#_clipPath_1P2p9CjWQA3l9ZyMA4Tp2LMdMKE5VXLc)"><path d=" M 4.068 33.151 L 36.284 65.636 L 68.784 33.151 C 68.784 33.151 68.784 33.151 68.784 33.15 C 75.258 25.009 74.672 13.456 67.413 6.174 C 60.157 -1.107 48.493 -1.848 40.176 4.445 C 38.17 5.963 37.069 6.799 37.069 6.799 C 37.069 6.799 35.978 5.945 34 4.397 C 25.822 -2.005 14.031 -1.35 6.448 5.932 C -1.134 13.211 -2.157 24.854 4.058 33.141 C 4.062 33.148 4.065 33.151 4.065 33.151 L 4.068 33.151 Z " fill-rule="evenodd" fill="rgb(255,255,255)"/></g></svg>