<?xml version="1.0" encoding="UTF-8" standalone="no"?><!-- Generator: Gravit.io --><svg xmlns="http://www.w3.org/2000/svg" xmlns:xlink="http://www.w3.org/1999/xlink" style="isolation:isolate" viewBox="0 0 140 140" width="140pt" height="140pt"><defs><clipPath id="_clipPath_audTHFPsoiKlMdHN2cPonxIB5fGDDhJ7"><rect width="140" height="140"/></clipPath></defs><g clip-path="url(#_clipPath_audTHFPsoiKlMdHN2cPonxIB5fGDDhJ7)"><path d=" M 37.776 33.151 L 69.992 65.636 L 102.492 33.151 C 102.492 33.151 102.492 33.151 102.492 33.15 C 108.965 25.009 108.379 13.456 101.12 6.174 C 93.864 -1.107 82.2 -1.848 73.884 4.445 C 71.878 5.963 70.776 6.799 70.776 6.799 C 70.776 6.799 69.686 5.945 67.708 4.397 C 59.529 -2.005 47.739 -1.35 40.155 5.932 C 32.573 13.211 31.55 24.854 37.766 33.141 C 37.77 33.148 37.773 33.151 37.773 33.151 L 37.776 33.151 Z " fill-rule="evenodd" fill="rgb(255,98,40)"/><path d=" M 33.044 102.316 L 65.423 69.995 L 33.044 37.389 C 33.044 37.389 33.044 37.389 33.042 37.389 C 24.928 30.894 13.412 31.482 6.154 38.765 C -1.103 46.044 -1.842 57.747 4.431 66.09 C 5.943 68.103 6.777 69.208 6.777 69.208 C 6.777 69.208 5.926 70.302 4.382 72.287 C -1.998 80.492 -1.346 92.32 5.912 99.928 C 13.168 107.535 24.773 108.561 33.033 102.326 C 33.041 102.322 33.044 102.319 33.044 102.319 L 33.044 102.316 Z " fill-rule="evenodd" fill="rgb(255,98,40)"/><path d=" M 102.202 106.849 L 69.987 74.364 L 37.486 106.849 C 37.486 106.849 37.486 106.849 37.486 106.85 C 31.013 114.991 31.599 126.544 38.858 133.826 C 46.114 141.107 57.778 141.848 66.095 135.555 C 68.101 134.037 69.202 133.201 69.202 133.201 C 69.202 133.201 70.292 134.055 72.271 135.603 C 80.449 142.005 92.239 141.35 99.823 134.068 C 107.405 126.789 108.428 115.146 102.213 106.859 C 102.208 106.852 102.205 106.849 102.205 106.849 L 102.202 106.849 Z " fill-rule="evenodd" fill="rgb(255,98,40)"/><path d=" M 106.956 37.664 L 74.577 69.984 L 106.956 102.59 C 106.956 102.59 106.956 102.59 106.958 102.59 C 115.072 109.085 126.588 108.497 133.846 101.215 C 141.103 93.935 141.842 82.233 135.569 73.889 C 134.057 71.877 133.223 70.772 133.223 70.772 C 133.223 70.772 134.074 69.678 135.618 67.693 C 141.998 59.488 141.346 47.659 134.088 40.051 C 126.832 32.445 115.227 31.418 106.967 37.654 C 106.959 37.658 106.956 37.661 106.956 37.661 L 106.956 37.664 Z " fill-rule="evenodd" fill="rgb(255,98,40)"/><text transform="matrix(1,0,0,1,54.293,44.916)" style="font-family:'Bauhaus 93';font-weight:400;font-size:48px;font-style:normal;fill:#000000;stroke:none;">G</text><text transform="matrix(-1,0,0,-1,82.188,94.217)" style="font-family:'Bauhaus 93';font-weight:400;font-size:48px;font-style:normal;fill:#000000;stroke:none;">F</text><text transform="matrix(0,-1,1,0,45.761,88.723)" style="font-family:'Bauhaus 93';font-weight:400;font-size:48px;font-style:normal;fill:#000000;stroke:none;">O</text><text transform="matrix(0,1,-1,0,94.239,56.987)" style="font-family:'Bauhaus 93';font-weight:400;font-size:48px;font-style:normal;fill:#000000;stroke:none;">T</text></g></svg>