<?xml version="1.0" encoding="UTF-8" standalone="no"?><!-- Generator: Gravit.io --><svg xmlns="http://www.w3.org/2000/svg" xmlns:xlink="http://www.w3.org/1999/xlink" style="isolation:isolate" viewBox="0 0 187 187" width="187pt" height="187pt"><defs><clipPath id="_clipPath_kVBdbaqntCVQmDLrOPr9I1t6gsd0xrjh"><rect width="187" height="187"/></clipPath></defs><g clip-path="url(#_clipPath_kVBdbaqntCVQmDLrOPr9I1t6gsd0xrjh)"><g><path d=" M 124.316 138.053 C 95.75 159.414 55.535 155.074 32.183 128.111 C 8.832 101.148 10.281 60.725 35.503 35.503 C 60.725 10.281 101.148 8.832 128.111 32.183 C 155.074 55.535 159.414 95.75 138.053 124.316 L 171.417 157.68 L 157.68 171.417 L 124.316 138.053 Z  M 132.162 83.589 C 132.162 100.943 122.904 116.978 107.876 125.655 C 92.847 134.331 74.331 134.331 59.302 125.655 C 44.274 116.978 35.016 100.943 35.016 83.589 C 35.016 56.763 56.763 35.016 83.589 35.016 C 110.415 35.016 132.162 56.763 132.162 83.589 L 132.162 83.589 Z " fill-rule="evenodd" fill="rgb(255,255,255)"/><rect x="0" y="0" width="187" height="187" transform="matrix(1,0,0,1,0,0)" fill="none"/></g></g></svg>