<?xml version="1.0" encoding="UTF-8" standalone="no"?><!-- Generator: Gravit.io --><svg xmlns="http://www.w3.org/2000/svg" xmlns:xlink="http://www.w3.org/1999/xlink" style="isolation:isolate" viewBox="0 0 185 204" width="185pt" height="204pt"><defs><clipPath id="_clipPath_46BjTjtlVpS0UnqSFDQDTCqO2MYfmLPw"><rect width="185" height="204"/></clipPath></defs><g clip-path="url(#_clipPath_46BjTjtlVpS0UnqSFDQDTCqO2MYfmLPw)"><path d=" M 1.614 30.967 L 91.75 4 L 183.5 30.967 C 192.665 124.588 159.558 179.987 91.75 204 C 20.044 175.444 -7.247 115.842 1.614 30.967 Z " fill-rule="evenodd" fill="rgb(209,209,209)"/><path d=" M 16.352 25.922 L 91.871 3 L 168.743 25.922 C 176.422 105.5 148.684 152.589 91.871 173 C 31.794 148.727 8.928 98.065 16.352 25.922 Z " fill-rule="evenodd" fill="rgb(0,0,0)"/><path d=" M 22.985 22.248 L 91.926 0 L 162.103 22.248 C 169.112 99.485 143.791 145.189 91.926 165 C 37.081 141.441 16.207 92.269 22.985 22.248 Z " fill-rule="evenodd" fill="rgb(209,209,209)"/><rect x="28" y="101.145" width="127" height="5.711" transform="matrix(1,0,0,1,0,0)" fill="rgb(0,0,0)"/></g></svg>