<?xml version="1.0" encoding="UTF-8" standalone="no"?><!-- Generator: Gravit.io --><svg xmlns="http://www.w3.org/2000/svg" xmlns:xlink="http://www.w3.org/1999/xlink" style="isolation:isolate" viewBox="0 0 45 50" width="45pt" height="50pt"><defs><clipPath id="_clipPath_mVEQQsD1LUjmdyB6DXpWgwE4gFZ8wCp7"><rect width="45" height="50"/></clipPath></defs><g clip-path="url(#_clipPath_mVEQQsD1LUjmdyB6DXpWgwE4gFZ8wCp7)"><clipPath id="_clipPath_q9xNPz2Yv4aBfchL8Shnp8xg6G1ZzHtL"><rect x="0" y="0" width="45" height="50" transform="matrix(1,0,0,1,0,0)" fill="rgb(255,255,255)"/></clipPath><g clip-path="url(#_clipPath_q9xNPz2Yv4aBfchL8Shnp8xg6G1ZzHtL)"><g><clipPath id="_clipPath_G6YzoNdomVgrFJE5t06TRKt4jK2ESYW0"><rect x="0" y="0" width="45" height="50" transform="matrix(1,0,0,1,0,0)" fill="rgb(255,255,255)"/></clipPath><g clip-path="url(#_clipPath_G6YzoNdomVgrFJE5t06TRKt4jK2ESYW0)"><g><g><path d=" M 0.393 7.59 L 22.318 0.981 L 44.635 7.59 C 46.865 30.536 38.812 44.115 22.318 50 C 4.876 43.001 -1.763 28.393 0.393 7.59 Z " fill-rule="evenodd" fill="rgb(209,209,209)"/><path d=" M 3.978 6.354 L 22.347 0.735 L 41.046 6.354 C 42.914 25.858 36.167 37.399 22.347 42.402 C 7.734 36.453 2.172 24.036 3.978 6.354 Z " fill-rule="evenodd" fill="rgb(0,0,0)"/><path d=" M 37.703 24.809 C 39.516 19.574 40.124 13.153 39.431 5.453 L 22.361 0 L 5.591 5.453 C 4.876 12.89 5.425 19.368 7.362 24.791 L 37.703 24.791 L 37.703 24.809 Z " fill-rule="evenodd" fill="rgb(209,209,209)"/></g></g></g></g></g></g></svg>