<?xml version="1.0" encoding="UTF-8" standalone="no"?><!-- Generator: Gravit.io --><svg xmlns="http://www.w3.org/2000/svg" xmlns:xlink="http://www.w3.org/1999/xlink" style="isolation:isolate" viewBox="0 0 185 204" width="185pt" height="204pt"><defs><clipPath id="_clipPath_YpH4CKlW53lMPvNXypMngpcuQUTdisIf"><rect width="185" height="204"/></clipPath></defs><g clip-path="url(#_clipPath_YpH4CKlW53lMPvNXypMngpcuQUTdisIf)"><path d=" M 1.614 30.967 L 91.75 4 L 183.5 30.967 C 192.665 124.588 159.558 179.987 91.75 204 C 20.044 175.444 -7.247 115.842 1.614 30.967 Z " fill-rule="evenodd" fill="rgb(209,209,209)"/><path d=" M 16.352 25.922 L 91.871 3 L 168.743 25.922 C 176.422 105.5 148.684 152.589 91.871 173 C 31.794 148.727 8.928 98.065 16.352 25.922 Z " fill-rule="evenodd" fill="rgb(0,0,0)"/><path d=" M 155 101.221 C 162.456 79.86 164.954 53.662 162.103 22.248 L 91.926 0 L 22.985 22.248 C 20.047 52.591 22.303 79.02 30.266 101.145 L 155 101.145 L 155 101.221 Z " fill-rule="evenodd" fill="rgb(209,209,209)"/></g></svg>